ffmpeg started on 2026-03-24 at 13:13:50
Report written to "D:\Convert\FFMetrics\reports\ssim_report-6.txt"
Log level: 32
Command line:
ffmpeg -hide_banner -nostdin -r 24000/1001 -i "F:\\\xc0\xed\xe8\xec\xe5\\LightFamily\\\xcc\xee\xe6\xe5\xf2 \xeb\xe8 \xf1\xf3\xf9\xe5\xf1\xf2\xe2\xee\xe2\xe0\xf2\xfc \xe4\xf0\xf3\xe6\xe1\xe0 \xec\xe5\xe6\xe4\xf3 \xec\xf3\xe6\xf7\xe8\xed\xee\xe9 \xe8 \xe6\xe5\xed\xf9\xe8\xed\xee\xe9 (\xcd\xe5\xf2, \xfd\xf2\xee \xed\xe5 \xf2\xe0\xea!)\\LightFamilyDUB_\xcc\xee\xe6\xe5\xf2_\xeb\xe8_\xf1\xf3\xf9\xe5\xf1\xf2\xe2\xee\xe2\xe0\xf2\xfc_\xe4\xf0\xf3\xe6\xe1\xe0_\xec\xe5\xe6\xe4\xf3_\xef\xe0\xf0\xed\xe5\xec_\xe8_\xe4\xe5\xe2\xf3\xf8\xea\xee\xe9_12_HEVC.mkv" -r 24000/1001 -i "F:\\\xc0\xed\xe8\xec\xe5\\LightFamily\\\xcc\xee\xe6\xe5\xf2 \xeb\xe8 \xf1\xf3\xf9\xe5\xf1\xf2\xe2\xee\xe2\xe0\xf2\xfc \xe4\xf0\xf3\xe6\xe1\xe0 \xec\xe5\xe6\xe4\xf3 \xec\xf3\xe6\xf7\xe8\xed\xee\xe9 \xe8 \xe6\xe5\xed\xf9\xe8\xed\xee\xe9 (\xcd\xe5\xf2, \xfd\xf2\xee \xed\xe5 \xf2\xe0\xea!)\\LightFamilyDUB_\xcc\xee\xe6\xe5\xf2_\xeb\xe8_\xf1\xf3\xf9\xe5\xf1\xf2\xe2\xee\xe2\xe0\xf2\xfc_\xe4\xf0\xf3\xe6\xe1\xe0_\xec\xe5\xe6\xe4\xf3_\xef\xe0\xf0\xed\xe5\xec_\xe8_\xe4\xe5\xe2\xf3\xf8\xea\xee\xe9_12.mp4" -lavfi "[0:v]settb=AVTB,setpts=PTS-STARTPTS,format=pix_fmts=yuv420p10le,fps=24000/1001,scale=1920:1080:flags=lanczos:param0=3:out_range=limited:out_color_matrix=bt709:out_chroma_loc=left,setsar=1/1,setdar=(1920/1080)*(1/1),colorspace=format=yuv420p10:range=tv:primaries=bt709:trc=bt709:space=bt709:fast=0[main];[1:v]settb=AVTB,setpts=PTS-STARTPTS,format=pix_fmts=yuv420p,fps=24000/1001,scale=1920:1080:flags=lanczos:param0=3:out_range=limited:out_color_matrix=bt709:out_chroma_loc=left,setsar=1/1,setdar=(1920/1080)*(1/1),colorspace=format=yuv420p:range=tv:primaries=bt709:trc=bt709:space=bt709:fast=0[ref];[main][ref]ssim=eof_action=endall:stats_file='D\\:/Convert/FFMetrics/logs/ssim_logfile-6.txt'" -f null -
Input #0, matroska,webm, from 'F:\Аниме\LightFamily\Может ли существовать дружба между мужчиной и женщиной (Нет, это не так!)\LightFamilyDUB_Может_ли_существовать_дружба_между_парнем_и_девушкой_12_HEVC.mkv':
  Metadata:
    COMPATIBLE_BRANDS: mp42mp41
    MAJOR_BRAND     : mp42
    MINOR_VERSION   : 0
    ENCODER         : Lavf61.7.100
  Duration: 00:23:39.99, start: -0.021000, bitrate: 767 kb/s
  Stream #0:0(eng): Video: hevc (Main 10), yuv420p10le(tv, bt709, progressive), 1920x1080 [SAR 1:1 DAR 16:9], 23.98 fps, 23.98 tbr, 1k tbn (default)
      Metadata:
        HANDLER_NAME    : Mainconcept Video Media Handler
        VENDOR_ID       : [0][0][0][0]
        ENCODER         : Lavc61.19.100 libx265
        BPS             : 569615
        DURATION        : 00:23:39.960708333
        NUMBER_OF_FRAMES: 34045
        NUMBER_OF_BYTES : 101103974
        _STATISTICS_WRITING_APP: mkvpropedit v94.0 ('Initiate') 64-bit
        _STATISTICS_WRITING_DATE_UTC: 2026-03-23 14:58:38
        _STATISTICS_TAGS: BPS DURATION NUMBER_OF_FRAMES NUMBER_OF_BYTES
  Stream #0:1(eng): Audio: aac (LC), 48000 Hz, stereo, fltp (default)
      Metadata:
        HANDLER_NAME    : #Mainconcept MP4 Sound Media Handler
        VENDOR_ID       : [0][0][0][0]
        ENCODER         : Lavc61.19.100 aac
        BPS             : 193862
        DURATION        : 00:23:39.968000000
        NUMBER_OF_FRAMES: 66562
        NUMBER_OF_BYTES : 34409874
        _STATISTICS_WRITING_APP: mkvpropedit v94.0 ('Initiate') 64-bit
        _STATISTICS_WRITING_DATE_UTC: 2026-03-23 14:58:38
        _STATISTICS_TAGS: BPS DURATION NUMBER_OF_FRAMES NUMBER_OF_BYTES
Input #1, mov,mp4,m4a,3gp,3g2,mj2, from 'F:\Аниме\LightFamily\Может ли существовать дружба между мужчиной и женщиной (Нет, это не так!)\LightFamilyDUB_Может_ли_существовать_дружба_между_парнем_и_девушкой_12.mp4':
  Metadata:
    major_brand     : mp42
    minor_version   : 0
    compatible_brands: mp42mp41
    creation_time   : 2026-01-29T21:51:50.000000Z
  Duration: 00:23:39.96, start: 0.000000, bitrate: 8383 kb/s
  Stream #1:0[0x1](eng): Video: h264 (Main) (avc1 / 0x31637661), yuv420p(tv, bt709, progressive), 1920x1080, 7998 kb/s, 23.98 fps, 23.98 tbr, 24k tbn (default)
      Metadata:
        creation_time   : 2026-01-29T21:51:50.000000Z
        handler_name    : Mainconcept Video Media Handler
        vendor_id       : [0][0][0][0]
        encoder         : AVC Coding
  Stream #1:1[0x2](eng): Audio: aac (LC) (mp4a / 0x6134706D), 48000 Hz, stereo, fltp, 381 kb/s (default)
      Metadata:
        creation_time   : 2026-01-29T21:51:50.000000Z
        handler_name    : #Mainconcept MP4 Sound Media Handler
        vendor_id       : [0][0][0][0]
Stream mapping:
  Stream #0:0 (hevc) -> settb:default
  Stream #1:0 (h264) -> settb:default
  ssim:default -> Stream #0:0 (wrapped_avframe)
  Stream #0:1 -> #0:1 (aac (native) -> pcm_s16le (native))
Output #0, null, to 'pipe:':
  Metadata:
    COMPATIBLE_BRANDS: mp42mp41
    MAJOR_BRAND     : mp42
    MINOR_VERSION   : 0
    encoder         : Lavf61.7.100
  Stream #0:0: Video: wrapped_avframe, yuv420p10le(tv, bt709, progressive), 1920x1080 [SAR 1:1 DAR 16:9], q=2-31, 200 kb/s, 23.98 fps, 23.98 tbn
      Metadata:
        encoder         : Lavc61.19.100 wrapped_avframe
  Stream #0:1(eng): Audio: pcm_s16le, 48000 Hz, stereo, s16, 1536 kb/s (default)
      Metadata:
        HANDLER_NAME    : #Mainconcept MP4 Sound Media Handler
        VENDOR_ID       : [0][0][0][0]
        _STATISTICS_TAGS: BPS DURATION NUMBER_OF_FRAMES NUMBER_OF_BYTES
        BPS             : 193862
        DURATION        : 00:23:39.968000000
        NUMBER_OF_FRAMES: 66562
        NUMBER_OF_BYTES : 34409874
        _STATISTICS_WRITING_APP: mkvpropedit v94.0 ('Initiate') 64-bit
        _STATISTICS_WRITING_DATE_UTC: 2026-03-23 14:58:38
        encoder         : Lavc61.19.100 pcm_s16le
frame=  140 fps=0.0 q=-0.0 size=N/A time=00:00:05.83 bitrate=N/A speed=11.4x    frame=  314 fps=308 q=-0.0 size=N/A time=00:00:13.09 bitrate=N/A speed=12.8x    frame=  503 fps=328 q=-0.0 size=N/A time=00:00:20.97 bitrate=N/A speed=13.7x    frame=  692 fps=336 q=-0.0 size=N/A time=00:00:28.86 bitrate=N/A speed=  14x    frame=  880 fps=342 q=-0.0 size=N/A time=00:00:36.70 bitrate=N/A speed=14.3x    frame= 1066 fps=346 q=-0.0 size=N/A time=00:00:44.46 bitrate=N/A speed=14.4x    frame= 1253 fps=348 q=-0.0 size=N/A time=00:00:52.26 bitrate=N/A speed=14.5x    frame= 1435 fps=349 q=-0.0 size=N/A time=00:00:59.85 bitrate=N/A speed=14.5x    frame= 1629 fps=352 q=-0.0 size=N/A time=00:01:07.94 bitrate=N/A speed=14.7x    frame= 1808 fps=351 q=-0.0 size=N/A time=00:01:15.40 bitrate=N/A speed=14.6x    frame= 1981 fps=350 q=-0.0 size=N/A time=00:01:22.62 bitrate=N/A speed=14.6x    frame= 2157 fps=349 q=-0.0 size=N/A time=00:01:29.96 bitrate=N/A speed=14.6x    frame= 2339 fps=349 q=-0.0 size=N/A time=00:01:37.55 bitrate=N/A speed=14.6x    frame= 2506 fps=348 q=-0.0 size=N/A time=00:01:44.52 bitrate=N/A speed=14.5x    frame= 2690 fps=348 q=-0.0 size=N/A time=00:01:52.19 bitrate=N/A speed=14.5x    frame= 2865 fps=347 q=-0.0 size=N/A time=00:01:59.49 bitrate=N/A speed=14.5x    frame= 3044 fps=348 q=-0.0 size=N/A time=00:02:06.96 bitrate=N/A speed=14.5x    frame= 3227 fps=348 q=-0.0 size=N/A time=00:02:14.59 bitrate=N/A speed=14.5x    frame= 3412 fps=348 q=-0.0 size=N/A time=00:02:22.30 bitrate=N/A speed=14.5x    frame= 3599 fps=349 q=-0.0 size=N/A time=00:02:30.10 bitrate=N/A speed=14.6x    frame= 3787 fps=350 q=-0.0 size=N/A time=00:02:37.94 bitrate=N/A speed=14.6x    frame= 3968 fps=350 q=-0.0 size=N/A time=00:02:45.49 bitrate=N/A speed=14.6x    frame= 4139 fps=349 q=-0.0 size=N/A time=00:02:52.63 bitrate=N/A speed=14.6x    frame= 4338 fps=351 q=-0.0 size=N/A time=00:03:00.93 bitrate=N/A speed=14.6x    frame= 4506 fps=350 q=-0.0 size=N/A time=00:03:07.93 bitrate=N/A speed=14.6x    frame= 4667 fps=348 q=-0.0 size=N/A time=00:03:14.65 bitrate=N/A speed=14.5x    frame= 4857 fps=349 q=-0.0 size=N/A time=00:03:22.57 bitrate=N/A speed=14.6x    frame= 5039 fps=349 q=-0.0 size=N/A time=00:03:30.16 bitrate=N/A speed=14.6x    frame= 5223 fps=350 q=-0.0 size=N/A time=00:03:37.84 bitrate=N/A speed=14.6x    frame= 5397 fps=349 q=-0.0 size=N/A time=00:03:45.09 bitrate=N/A speed=14.6x    frame= 5574 fps=349 q=-0.0 size=N/A time=00:03:52.48 bitrate=N/A speed=14.5x    frame= 5758 fps=349 q=-0.0 size=N/A time=00:04:00.15 bitrate=N/A speed=14.6x    frame= 5946 fps=350 q=-0.0 size=N/A time=00:04:07.99 bitrate=N/A speed=14.6x    frame= 6134 fps=350 q=-0.0 size=N/A time=00:04:15.83 bitrate=N/A speed=14.6x    frame= 6325 fps=351 q=-0.0 size=N/A time=00:04:23.80 bitrate=N/A speed=14.6x    frame= 6516 fps=351 q=-0.0 size=N/A time=00:04:31.77 bitrate=N/A speed=14.6x    frame= 6694 fps=351 q=-0.0 size=N/A time=00:04:39.19 bitrate=N/A speed=14.6x    frame= 6883 fps=352 q=-0.0 size=N/A time=00:04:47.07 bitrate=N/A speed=14.7x    frame= 7072 fps=352 q=-0.0 size=N/A time=00:04:54.96 bitrate=N/A speed=14.7x    frame= 7256 fps=352 q=-0.0 size=N/A time=00:05:02.63 bitrate=N/A speed=14.7x    frame= 7440 fps=352 q=-0.0 size=N/A time=00:05:10.31 bitrate=N/A speed=14.7x    frame= 7637 fps=353 q=-0.0 size=N/A time=00:05:18.52 bitrate=N/A speed=14.7x    frame= 7822 fps=353 q=-0.0 size=N/A time=00:05:26.24 bitrate=N/A speed=14.7x    frame= 8005 fps=353 q=-0.0 size=N/A time=00:05:33.87 bitrate=N/A speed=14.7x    frame= 8195 fps=353 q=-0.0 size=N/A time=00:05:41.79 bitrate=N/A speed=14.7x    frame= 8379 fps=353 q=-0.0 size=N/A time=00:05:49.47 bitrate=N/A speed=14.7x    frame= 8565 fps=353 q=-0.0 size=N/A time=00:05:57.23 bitrate=N/A speed=14.7x    frame= 8755 fps=354 q=-0.0 size=N/A time=00:06:05.15 bitrate=N/A speed=14.8x    frame= 8937 fps=354 q=-0.0 size=N/A time=00:06:12.74 bitrate=N/A speed=14.8x    frame= 9118 fps=354 q=-0.0 size=N/A time=00:06:20.29 bitrate=N/A speed=14.8x    frame= 9315 fps=354 q=-0.0 size=N/A time=00:06:28.51 bitrate=N/A speed=14.8x    frame= 9492 fps=354 q=-0.0 size=N/A time=00:06:35.89 bitrate=N/A speed=14.8x    frame= 9680 fps=354 q=-0.0 size=N/A time=00:06:43.73 bitrate=N/A speed=14.8x    frame= 9871 fps=355 q=-0.0 size=N/A time=00:06:51.70 bitrate=N/A speed=14.8x    frame=10061 fps=355 q=-0.0 size=N/A time=00:06:59.62 bitrate=N/A speed=14.8x    frame=10245 fps=355 q=-0.0 size=N/A time=00:07:07.30 bitrate=N/A speed=14.8x    frame=10434 fps=355 q=-0.0 size=N/A time=00:07:15.18 bitrate=N/A speed=14.8x    frame=10616 fps=355 q=-0.0 size=N/A time=00:07:22.77 bitrate=N/A speed=14.8x    frame=10800 fps=355 q=-0.0 size=N/A time=00:07:30.45 bitrate=N/A speed=14.8x    frame=10982 fps=355 q=-0.0 size=N/A time=00:07:38.04 bitrate=N/A speed=14.8x    frame=11170 fps=355 q=-0.0 size=N/A time=00:07:45.88 bitrate=N/A speed=14.8x    frame=11362 fps=356 q=-0.0 size=N/A time=00:07:53.89 bitrate=N/A speed=14.8x    frame=11533 fps=355 q=-0.0 size=N/A time=00:08:01.02 bitrate=N/A speed=14.8x    frame=11718 fps=355 q=-0.0 size=N/A time=00:08:08.73 bitrate=N/A speed=14.8x    frame=11906 fps=355 q=-0.0 size=N/A time=00:08:16.57 bitrate=N/A speed=14.8x    frame=12088 fps=355 q=-0.0 size=N/A time=00:08:24.17 bitrate=N/A speed=14.8x    frame=12266 fps=355 q=-0.0 size=N/A time=00:08:31.59 bitrate=N/A speed=14.8x    frame=12457 fps=355 q=-0.0 size=N/A time=00:08:39.56 bitrate=N/A speed=14.8x    frame=12640 fps=355 q=-0.0 size=N/A time=00:08:47.19 bitrate=N/A speed=14.8x    frame=12822 fps=355 q=-0.0 size=N/A time=00:08:54.78 bitrate=N/A speed=14.8x    frame=13007 fps=355 q=-0.0 size=N/A time=00:09:02.50 bitrate=N/A speed=14.8x    frame=13192 fps=355 q=-0.0 size=N/A time=00:09:10.21 bitrate=N/A speed=14.8x    frame=13380 fps=356 q=-0.0 size=N/A time=00:09:18.05 bitrate=N/A speed=14.8x    frame=13566 fps=356 q=-0.0 size=N/A time=00:09:25.81 bitrate=N/A speed=14.8x    frame=13752 fps=356 q=-0.0 size=N/A time=00:09:33.57 bitrate=N/A speed=14.8x    frame=13935 fps=356 q=-0.0 size=N/A time=00:09:41.20 bitrate=N/A speed=14.8x    frame=14128 fps=356 q=-0.0 size=N/A time=00:09:49.25 bitrate=N/A speed=14.8x    frame=14322 fps=356 q=-0.0 size=N/A time=00:09:57.34 bitrate=N/A speed=14.9x    frame=14503 fps=356 q=-0.0 size=N/A time=00:10:04.89 bitrate=N/A speed=14.9x    frame=14688 fps=356 q=-0.0 size=N/A time=00:10:12.61 bitrate=N/A speed=14.9x    frame=14882 fps=356 q=-0.0 size=N/A time=00:10:20.70 bitrate=N/A speed=14.9x    frame=15064 fps=356 q=-0.0 size=N/A time=00:10:28.29 bitrate=N/A speed=14.9x    frame=15245 fps=356 q=-0.0 size=N/A time=00:10:35.84 bitrate=N/A speed=14.9x    frame=15435 fps=356 q=-0.0 size=N/A time=00:10:43.76 bitrate=N/A speed=14.9x    frame=15629 fps=357 q=-0.0 size=N/A time=00:10:51.85 bitrate=N/A speed=14.9x    frame=15804 fps=356 q=-0.0 size=N/A time=00:10:59.15 bitrate=N/A speed=14.9x    frame=15999 fps=357 q=-0.0 size=N/A time=00:11:07.29 bitrate=N/A speed=14.9x    frame=16182 fps=357 q=-0.0 size=N/A time=00:11:14.92 bitrate=N/A speed=14.9x    frame=16366 fps=357 q=-0.0 size=N/A time=00:11:22.59 bitrate=N/A speed=14.9x    frame=16551 fps=357 q=-0.0 size=N/A time=00:11:30.31 bitrate=N/A speed=14.9x    frame=16735 fps=357 q=-0.0 size=N/A time=00:11:37.98 bitrate=N/A speed=14.9x    frame=16916 fps=357 q=-0.0 size=N/A time=00:11:45.53 bitrate=N/A speed=14.9x    frame=17090 fps=356 q=-0.0 size=N/A time=00:11:52.79 bitrate=N/A speed=14.9x    frame=17272 fps=356 q=-0.0 size=N/A time=00:12:00.38 bitrate=N/A speed=14.9x    frame=17471 fps=357 q=-0.0 size=N/A time=00:12:08.68 bitrate=N/A speed=14.9x    frame=17655 fps=357 q=-0.0 size=N/A time=00:12:16.36 bitrate=N/A speed=14.9x    frame=17841 fps=357 q=-0.0 size=N/A time=00:12:24.11 bitrate=N/A speed=14.9x    frame=18035 fps=357 q=-0.0 size=N/A time=00:12:32.20 bitrate=N/A speed=14.9x    frame=18231 fps=357 q=-0.0 size=N/A time=00:12:40.38 bitrate=N/A speed=14.9x    frame=18415 fps=357 q=-0.0 size=N/A time=00:12:48.05 bitrate=N/A speed=14.9x    frame=18612 fps=357 q=-0.0 size=N/A time=00:12:56.27 bitrate=N/A speed=14.9x    frame=18802 fps=358 q=-0.0 size=N/A time=00:13:04.20 bitrate=N/A speed=14.9x    frame=18984 fps=358 q=-0.0 size=N/A time=00:13:11.79 bitrate=N/A speed=14.9x    frame=19176 fps=358 q=-0.0 size=N/A time=00:13:19.79 bitrate=N/A speed=14.9x    frame=19362 fps=358 q=-0.0 size=N/A time=00:13:27.55 bitrate=N/A speed=14.9x    frame=19550 fps=358 q=-0.0 size=N/A time=00:13:35.39 bitrate=N/A speed=14.9x    frame=19732 fps=358 q=-0.0 size=N/A time=00:13:42.98 bitrate=N/A speed=14.9x    frame=19925 fps=358 q=-0.0 size=N/A time=00:13:51.03 bitrate=N/A speed=14.9x    frame=20119 fps=358 q=-0.0 size=N/A time=00:13:59.12 bitrate=N/A speed=14.9x    frame=20297 fps=358 q=-0.0 size=N/A time=00:14:06.55 bitrate=N/A speed=14.9x    frame=20479 fps=358 q=-0.0 size=N/A time=00:14:14.14 bitrate=N/A speed=14.9x    frame=20666 fps=358 q=-0.0 size=N/A time=00:14:21.94 bitrate=N/A speed=14.9x    frame=20850 fps=358 q=-0.0 size=N/A time=00:14:29.61 bitrate=N/A speed=14.9x    frame=21042 fps=358 q=-0.0 size=N/A time=00:14:37.62 bitrate=N/A speed=14.9x    frame=21233 fps=358 q=-0.0 size=N/A time=00:14:45.59 bitrate=N/A speed=14.9x    frame=21417 fps=358 q=-0.0 size=N/A time=00:14:53.26 bitrate=N/A speed=14.9x    frame=21593 fps=358 q=-0.0 size=N/A time=00:15:00.60 bitrate=N/A speed=14.9x    frame=21781 fps=358 q=-0.0 size=N/A time=00:15:08.44 bitrate=N/A speed=14.9x    frame=21971 fps=358 q=-0.0 size=N/A time=00:15:16.37 bitrate=N/A speed=14.9x    frame=22158 fps=358 q=-0.0 size=N/A time=00:15:24.17 bitrate=N/A speed=14.9x    frame=22355 fps=358 q=-0.0 size=N/A time=00:15:32.38 bitrate=N/A speed=14.9x    frame=22544 fps=358 q=-0.0 size=N/A time=00:15:40.27 bitrate=N/A speed=14.9x    frame=22728 fps=358 q=-0.0 size=N/A time=00:15:47.94 bitrate=N/A speed=  15x    frame=22918 fps=358 q=-0.0 size=N/A time=00:15:55.87 bitrate=N/A speed=  15x    frame=23108 fps=359 q=-0.0 size=N/A time=00:16:03.79 bitrate=N/A speed=  15x    frame=23296 fps=359 q=-0.0 size=N/A time=00:16:11.63 bitrate=N/A speed=  15x    frame=23480 fps=359 q=-0.0 size=N/A time=00:16:19.31 bitrate=N/A speed=  15x    frame=23666 fps=359 q=-0.0 size=N/A time=00:16:27.06 bitrate=N/A speed=  15x    frame=23851 fps=359 q=-0.0 size=N/A time=00:16:34.78 bitrate=N/A speed=  15x    frame=24038 fps=359 q=-0.0 size=N/A time=00:16:42.58 bitrate=N/A speed=  15x    frame=24219 fps=359 q=-0.0 size=N/A time=00:16:50.13 bitrate=N/A speed=  15x    frame=24408 fps=359 q=-0.0 size=N/A time=00:16:58.01 bitrate=N/A speed=  15x    frame=24601 fps=359 q=-0.0 size=N/A time=00:17:06.06 bitrate=N/A speed=  15x    frame=24797 fps=359 q=-0.0 size=N/A time=00:17:14.24 bitrate=N/A speed=  15x    frame=24980 fps=359 q=-0.0 size=N/A time=00:17:21.87 bitrate=N/A speed=  15x    frame=25170 fps=359 q=-0.0 size=N/A time=00:17:29.79 bitrate=N/A speed=  15x    frame=25334 fps=359 q=-0.0 size=N/A time=00:17:36.63 bitrate=N/A speed=  15x    frame=25516 fps=359 q=-0.0 size=N/A time=00:17:44.22 bitrate=N/A speed=  15x    frame=25707 fps=359 q=-0.0 size=N/A time=00:17:52.19 bitrate=N/A speed=  15x    frame=25893 fps=359 q=-0.0 size=N/A time=00:17:59.95 bitrate=N/A speed=  15x    frame=26082 fps=359 q=-0.0 size=N/A time=00:18:07.83 bitrate=N/A speed=  15x    frame=26274 fps=359 q=-0.0 size=N/A time=00:18:15.84 bitrate=N/A speed=  15x    frame=26464 fps=359 q=-0.0 size=N/A time=00:18:23.76 bitrate=N/A speed=  15x    frame=26649 fps=359 q=-0.0 size=N/A time=00:18:31.48 bitrate=N/A speed=  15x    frame=26839 fps=359 q=-0.0 size=N/A time=00:18:39.40 bitrate=N/A speed=  15x    frame=27031 fps=359 q=-0.0 size=N/A time=00:18:47.41 bitrate=N/A speed=  15x    frame=27215 fps=359 q=-0.0 size=N/A time=00:18:55.09 bitrate=N/A speed=  15x    frame=27402 fps=359 q=-0.0 size=N/A time=00:19:02.89 bitrate=N/A speed=  15x    frame=27596 fps=359 q=-0.0 size=N/A time=00:19:10.98 bitrate=N/A speed=  15x    frame=27787 fps=359 q=-0.0 size=N/A time=00:19:18.94 bitrate=N/A speed=  15x    frame=27969 fps=359 q=-0.0 size=N/A time=00:19:26.54 bitrate=N/A speed=  15x    frame=28157 fps=359 q=-0.0 size=N/A time=00:19:34.38 bitrate=N/A speed=  15x    frame=28356 fps=359 q=-0.0 size=N/A time=00:19:42.68 bitrate=N/A speed=  15x    frame=28544 fps=359 q=-0.0 size=N/A time=00:19:50.52 bitrate=N/A speed=  15x    frame=28732 fps=359 q=-0.0 size=N/A time=00:19:58.36 bitrate=N/A speed=  15x    frame=28921 fps=360 q=-0.0 size=N/A time=00:20:06.24 bitrate=N/A speed=  15x    frame=29113 fps=360 q=-0.0 size=N/A time=00:20:14.25 bitrate=N/A speed=  15x    frame=29293 fps=360 q=-0.0 size=N/A time=00:20:21.76 bitrate=N/A speed=  15x    frame=29487 fps=360 q=-0.0 size=N/A time=00:20:29.85 bitrate=N/A speed=  15x    frame=29669 fps=360 q=-0.0 size=N/A time=00:20:37.44 bitrate=N/A speed=  15x    frame=29848 fps=360 q=-0.0 size=N/A time=00:20:44.91 bitrate=N/A speed=  15x    frame=30043 fps=360 q=-0.0 size=N/A time=00:20:53.04 bitrate=N/A speed=  15x    frame=30225 fps=360 q=-0.0 size=N/A time=00:21:00.63 bitrate=N/A speed=  15x    frame=30410 fps=360 q=-0.0 size=N/A time=00:21:08.35 bitrate=N/A speed=  15x    frame=30599 fps=360 q=-0.0 size=N/A time=00:21:16.23 bitrate=N/A speed=  15x    frame=30778 fps=360 q=-0.0 size=N/A time=00:21:23.69 bitrate=N/A speed=  15x    frame=30958 fps=359 q=-0.0 size=N/A time=00:21:31.20 bitrate=N/A speed=  15x    frame=31129 fps=359 q=-0.0 size=N/A time=00:21:38.33 bitrate=N/A speed=  15x    frame=31320 fps=359 q=-0.0 size=N/A time=00:21:46.30 bitrate=N/A speed=  15x    frame=31508 fps=359 q=-0.0 size=N/A time=00:21:54.14 bitrate=N/A speed=  15x    frame=31696 fps=359 q=-0.0 size=N/A time=00:22:01.98 bitrate=N/A speed=  15x    frame=31873 fps=359 q=-0.0 size=N/A time=00:22:09.36 bitrate=N/A speed=  15x    frame=32051 fps=359 q=-0.0 size=N/A time=00:22:16.79 bitrate=N/A speed=  15x    frame=32232 fps=359 q=-0.0 size=N/A time=00:22:24.34 bitrate=N/A speed=  15x    frame=32423 fps=359 q=-0.0 size=N/A time=00:22:32.30 bitrate=N/A speed=  15x    frame=32605 fps=359 q=-0.0 size=N/A time=00:22:39.90 bitrate=N/A speed=  15x    frame=32790 fps=359 q=-0.0 size=N/A time=00:22:47.61 bitrate=N/A speed=  15x    frame=32974 fps=359 q=-0.0 size=N/A time=00:22:55.29 bitrate=N/A speed=  15x    frame=33161 fps=359 q=-0.0 size=N/A time=00:23:03.09 bitrate=N/A speed=  15x    frame=33344 fps=359 q=-0.0 size=N/A time=00:23:10.72 bitrate=N/A speed=  15x    frame=33517 fps=359 q=-0.0 size=N/A time=00:23:17.93 bitrate=N/A speed=  15x    frame=33696 fps=359 q=-0.0 size=N/A time=00:23:25.40 bitrate=N/A speed=  15x    frame=33869 fps=359 q=-0.0 size=N/A time=00:23:32.61 bitrate=N/A speed=  15x    [Parsed_ssim_16 @ 000001d4e0d8a240] SSIM Y:0.993656 (21.976265) U:0.993854 (22.113866) V:0.993841 (22.105080) All:0.993720 (22.020215)
[out#0/null @ 000001d4de187ec0] video:14629KiB audio:266248KiB subtitle:0KiB other streams:0KiB global headers:0KiB muxing overhead: unknown
frame=34045 fps=359 q=-0.0 Lsize=N/A time=00:23:39.96 bitrate=N/A speed=  15x    
